<svg width="64" height="64" viewBox="0 0 64 64" fill="none" xmlns="http://www.w3.org/2000/svg">
  <!-- Dark background -->
  <rect width="64" height="64" rx="10" fill="#0a0a0a"/>

  <!-- Center dot (matches logo) -->
  <circle cx="27" cy="27" r="5.5" fill="white"/>

  <!-- Radar rings top-right (matches logo exactly) -->
  <path d="M27 7 A20 20 0 0 1 47 27" stroke="white" stroke-width="4" stroke-linecap="round" fill="none"/>
  <path d="M27 14 A13 13 0 0 1 40 27" stroke="white" stroke-width="4" stroke-linecap="round" fill="none"/>
  <path d="M27 20 A7 7 0 0 1 34 27" stroke="white" stroke-width="4" stroke-linecap="round" fill="none"/>

  <!-- Radar rings bottom-left -->
  <path d="M7 27 A20 20 0 0 0 27 47" stroke="white" stroke-width="4" stroke-linecap="round" fill="none"/>
  <path d="M14 27 A13 13 0 0 0 27 40" stroke="white" stroke-width="4" stroke-linecap="round" fill="none"/>
  <path d="M20 27 A7 7 0 0 0 27 34" stroke="white" stroke-width="4" stroke-linecap="round" fill="none"/>

  <!-- Dashed bottom-right arc -->
  <path d="M27 47 A20 20 0 0 0 47 27" stroke="white" stroke-width="4" stroke-linecap="round" fill="none" stroke-dasharray="14 6"/>

  <!-- Gold pointer (matches logo angle) -->
  <line x1="27" y1="27" x2="48" y2="8" stroke="#ffbd2e" stroke-width="4" stroke-linecap="round"/>
  <circle cx="48" cy="8" r="4" fill="#ffbd2e"/>
</svg>
