<svg width="64" height="64" viewBox="0 0 64 64" fill="none" xmlns="http://www.w3.org/2000/svg">
  <!-- Black background -->
  <rect width="64" height="64" rx="10" fill="#0a0a0a"/>

  <!-- Radar center dot -->
  <circle cx="32" cy="32" r="5" fill="white"/>

  <!-- Radar rings (top-right quadrant) -->
  <path d="M32 12 A20 20 0 0 1 52 32" stroke="white" stroke-width="3" stroke-linecap="round" fill="none"/>
  <path d="M32 19 A13 13 0 0 1 45 32" stroke="white" stroke-width="3" stroke-linecap="round" fill="none"/>
  <path d="M32 25 A7 7 0 0 1 39 32" stroke="white" stroke-width="3" stroke-linecap="round" fill="none"/>

  <!-- Radar rings (bottom-left quadrant) -->
  <path d="M12 32 A20 20 0 0 0 32 52" stroke="white" stroke-width="3" stroke-linecap="round" fill="none"/>
  <path d="M19 32 A13 13 0 0 0 32 45" stroke="white" stroke-width="3" stroke-linecap="round" fill="none"/>
  <path d="M25 32 A7 7 0 0 0 32 39" stroke="white" stroke-width="3" stroke-linecap="round" fill="none"/>

  <!-- Dashed arc (bottom-right quadrant) -->
  <path d="M32 52 A20 20 0 0 0 52 32" stroke="white" stroke-width="3" stroke-linecap="round" fill="none" stroke-dasharray="18 8"/>

  <!-- Gold pointer line -->
  <line x1="32" y1="32" x2="52" y2="13" stroke="#ffbd2e" stroke-width="3" stroke-linecap="round"/>
  <!-- Gold pointer tip dot -->
  <circle cx="52" cy="13" r="3" fill="#ffbd2e"/>
</svg>
