<svg width="240" height="240" viewBox="0 0 240 240" fill="none" xmlns="http://www.w3.org/2000/svg">
  <rect width="240" height="240" rx="40" fill="#000000" />
  <circle cx="120" cy="120" r="28" fill="white"/>
  <path d="M120 20 A100 100 0 0 1 220 120" stroke="white" stroke-width="10" stroke-linecap="round" fill="none"/>
  <path d="M120 45 A75 75 0 0 1 195 120" stroke="white" stroke-width="10" stroke-linecap="round" fill="none"/>
  <path d="M120 70 A50 50 0 0 1 170 120" stroke="white" stroke-width="10" stroke-linecap="round" fill="none"/>
  <path d="M20 120 A100 100 0 0 0 120 220" stroke="white" stroke-width="10" stroke-linecap="round" fill="none"/>
  <path d="M45 120 A75 75 0 0 0 120 195" stroke="white" stroke-width="10" stroke-linecap="round" fill="none"/>
  <path d="M70 120 A50 50 0 0 0 120 170" stroke="white" stroke-width="10" stroke-linecap="round" fill="none"/>
  <path d="M120 220 A100 100 0 0 0 220 120" stroke="white" stroke-width="10" stroke-linecap="round" fill="none" stroke-dasharray="160 40"/>
  <line x1="120" y1="120" x2="210" y2="35" stroke="#ffbd2e" stroke-width="10" stroke-linecap="round"/>
  <circle cx="210" cy="35" r="10" fill="#ffbd2e"/>
</svg>
